PathFileType  4	(X/Y/Z) H:\Shared drives\HIT\Data\HapticPilot\Subject1\Edited\Files_W_HJCs
DataRate	CameraRate	NumFrames	NumMarkers	Units	OrigDataRate	OrigDataStartFrame	OrigNumFrames
   50.0		   50.0		    4		     56		 mm	   50.0	      29	    227
Frame#	Time	r_knee			r_shank_antsup			r_ankle			r_calc			r_5meta			r_toe			L_knee			L_shank_antsup			L_ankle			L_calc			L_5meta			L_toe			r_mknee			r_mankle			L_mknee			L_mankle			r_sh2			r_sh3			r_sh4			L_sh2			L_sh3			r_thigh1			r_thigh2			r_thigh3			r_thigh4			r_thigh5			L_thigh1			L_thigh2			L_thigh3			L_thigh4			r.ASIS			r.PSIS			L.ASIS			L.PSIS			C7			R_Shoulder			L_Shoulder			Sternum			R_HJC			L_HJC			R_HJC_reg			L_HJC_reg			midPSIS			midASIS			midHJC			midPelvis			R_KJC			L_KJC			R_AJC			L_AJC			R_AJC_proj			R_5meta_proj			R_toe_proj			L_AJC_proj			L_5meta_proj			L_toe_proj			
		X1	Y1	Z1	X2	Y2	Z2	X3	Y3	Z3	X4	Y4	Z4	X5	Y5	Z5	X6	Y6	Z6	X7	Y7	Z7	X8	Y8	Z8	X9	Y9	Z9	X10	Y10	Z10	X11	Y11	Z11	X12	Y12	Z12	X13	Y13	Z13	X14	Y14	Z14	X15	Y15	Z15	X16	Y16	Z16	X17	Y17	Z17	X18	Y18	Z18	X19	Y19	Z19	X20	Y20	Z20	X21	Y21	Z21	X22	Y22	Z22	X23	Y23	Z23	X24	Y24	Z24	X25	Y25	Z25	X26	Y26	Z26	X27	Y27	Z27	X28	Y28	Z28	X29	Y29	Z29	X30	Y30	Z30	X31	Y31	Z31	X32	Y32	Z32	X33	Y33	Z33	X34	Y34	Z34	X35	Y35	Z35	X36	Y36	Z36	X37	Y37	Z37	X38	Y38	Z38	X39	Y39	Z39	X40	Y40	Z40	X41	Y41	Z41	X42	Y42	Z42	X43	Y43	Z43	X44	Y44	Z44	X45	Y45	Z45	X46	Y46	Z46	X47	Y47	Z47	X48	Y48	Z48	X49	Y49	Z49	X50	Y50	Z50	X51	Y51	Z51	X52	Y52	Z52	X53	Y53	Z53	X54	Y54	Z54	X55	Y55	Z55	X56	Y56	Z56	

29	0.56000	772.563	578.933	-409.519	787.042	491.911	-404.664	734.992	114.211	-409.049	646.414	71.224	-452.105	847.122	39.413	-382.320	886.039	73.628	-445.094	765.786	573.463	-732.869	790.828	456.110	-734.014	705.227	113.299	-732.221	629.686	73.419	-681.355	820.990	42.505	-777.881	868.054	71.047	-721.425	770.232	558.080	-535.514	746.905	120.731	-505.247	783.608	562.971	-610.446	736.696	120.676	-642.443	783.909	371.805	-401.450	712.084	491.612	-392.651	701.828	375.733	-385.972	703.367	475.981	-752.713	691.491	354.060	-753.996	840.346	899.013	-393.224	839.729	784.118	-396.378	793.838	750.778	-383.957	727.347	892.928	-382.199	732.721	775.934	-394.164	853.821	840.103	-753.103	855.333	701.989	-744.037	738.689	838.611	-771.839	743.199	704.326	-752.482	863.186	1094.876	-447.410	674.029	1126.516	-540.120	872.278	1096.252	-705.176	682.352	1125.413	-622.561	721.427	1608.813	-588.048	766.050	1582.833	-422.885	788.616	1575.785	-764.247	864.575	1536.834	-580.630	794.485	1006.114	-459.482	801.835	1007.547	-695.728	789.077	1018.822	-490.312	806.175	1016.556	-659.670	678.190	1125.965	-581.341	867.732	1095.564	-576.293	798.160	1006.830	-577.605	772.961	1110.764	-578.817	771.398	568.507	-472.516	774.697	568.217	-671.658	740.949	117.471	-457.148	720.962	116.988	-687.332	740.949	0.000	-457.148	847.122	0.000	-382.320	886.039	0.000	-445.094	720.962	0.000	-687.332	820.990	0.000	-777.881	868.054	0.000	-721.425
30	0.58000	772.580	578.918	-409.555	787.049	491.907	-404.669	734.989	114.211	-409.056	646.435	71.214	-452.069	847.107	39.385	-382.306	886.064	73.632	-445.102	765.922	573.438	-732.850	790.908	456.132	-734.037	705.297	113.253	-732.267	629.677	73.321	-681.402	821.013	42.501	-777.852	868.065	71.028	-721.409	770.220	558.036	-535.503	746.916	120.698	-505.235	783.582	562.869	-610.442	736.753	120.745	-642.424	783.883	371.777	-401.448	712.070	491.620	-392.667	701.844	375.729	-385.988	703.461	475.975	-752.776	691.439	354.015	-753.977	840.414	898.983	-393.250	839.449	784.001	-396.324	793.957	750.804	-383.929	727.423	892.968	-382.119	732.826	775.942	-393.988	854.048	840.047	-753.055	855.488	701.961	-743.973	738.964	838.525	-771.893	743.337	704.397	-752.561	863.294	1094.851	-447.374	674.142	1126.545	-540.103	872.363	1096.254	-705.181	682.439	1125.385	-622.622	721.438	1608.820	-588.146	765.961	1582.858	-422.976	788.551	1575.692	-764.279	864.536	1536.858	-580.718	794.572	1006.106	-459.486	801.930	1007.541	-695.731	789.157	1018.900	-490.205	806.190	1016.519	-659.594	678.291	1125.965	-581.363	867.828	1095.553	-576.278	798.251	1006.823	-577.608	773.059	1110.759	-578.820	771.400	568.477	-472.529	774.752	568.153	-671.646	740.953	117.454	-457.146	721.025	116.999	-687.345	740.953	0.000	-457.146	847.107	0.000	-382.306	886.064	0.000	-445.102	721.025	0.000	-687.345	821.013	0.000	-777.852	868.065	0.000	-721.409
31	0.60000	772.634	578.894	-409.561	787.073	491.926	-404.657	734.988	114.217	-409.055	646.448	71.206	-452.075	847.109	39.385	-382.318	886.066	73.650	-445.104	766.045	573.431	-732.838	791.030	456.092	-734.008	705.266	113.302	-732.248	629.689	73.421	-681.390	820.995	42.468	-777.864	868.065	71.046	-721.436	770.261	558.062	-535.497	746.907	120.724	-505.271	783.754	562.950	-610.448	736.630	120.754	-642.330	783.896	371.794	-401.441	712.134	491.605	-392.667	701.838	375.735	-385.992	703.550	475.982	-752.728	691.541	354.180	-753.941	840.453	898.922	-393.251	839.628	784.049	-396.369	794.051	750.755	-383.916	727.481	892.952	-382.103	732.908	775.910	-393.997	854.256	840.053	-753.003	855.698	701.918	-743.901	739.247	838.557	-771.897	743.526	704.386	-752.623	863.350	1094.841	-447.442	674.224	1126.547	-540.200	872.444	1096.206	-705.189	682.506	1125.419	-622.688	721.464	1608.817	-588.183	765.864	1582.846	-423.091	788.484	1575.575	-764.379	864.421	1536.813	-580.768	794.601	1006.107	-459.532	801.993	1007.517	-695.776	789.249	1018.850	-490.280	806.253	1016.534	-659.634	678.365	1125.983	-581.444	867.897	1095.524	-576.316	798.297	1006.812	-577.654	773.131	1110.754	-578.880	771.448	568.478	-472.529	774.900	568.190	-671.643	740.948	117.471	-457.163	720.948	117.028	-687.289	740.948	0.000	-457.163	847.109	0.000	-382.318	886.066	0.000	-445.104	720.948	0.000	-687.289	820.995	0.000	-777.864	868.065	0.000	-721.436
32	0.62000	772.719	578.888	-409.550	787.137	491.936	-404.662	735.006	114.234	-409.039	646.432	71.276	-452.115	847.105	39.433	-382.294	886.070	73.656	-445.119	766.226	573.475	-732.820	791.167	456.088	-733.994	705.243	113.353	-732.210	629.696	73.446	-681.369	821.006	42.514	-777.890	868.062	71.051	-721.433	770.408	558.065	-535.463	746.928	120.761	-505.279	783.770	562.865	-610.432	736.746	120.793	-642.368	783.994	371.786	-401.438	712.249	491.610	-392.670	701.955	375.752	-385.982	703.664	476.007	-752.748	691.702	354.095	-754.046	840.664	898.976	-393.250	839.723	783.993	-396.331	794.109	750.783	-383.846	727.630	892.932	-382.106	733.055	775.949	-393.946	854.440	840.083	-752.898	855.919	701.959	-743.828	739.134	838.673	-771.807	743.743	704.393	-752.703	863.525	1094.855	-447.426	674.330	1126.549	-540.149	872.519	1096.203	-705.132	682.678	1125.447	-622.607	721.424	1608.873	-588.307	765.733	1582.858	-423.221	788.367	1575.586	-764.488	864.325	1536.778	-580.904	794.752	1006.120	-459.482	802.094	1007.521	-695.728	789.335	1018.817	-490.345	806.476	1016.556	-659.656	678.504	1125.998	-581.378	868.022	1095.529	-576.279	798.423	1006.821	-577.605	773.263	1110.764	-578.829	771.563	568.477	-472.507	774.998	568.170	-671.626	740.967	117.497	-457.159	720.995	117.073	-687.289	740.967	0.000	-457.159	847.105	0.000	-382.294	886.070	0.000	-445.119	720.995	0.000	-687.289	821.006	0.000	-777.890	868.062	0.000	-721.433
